<svg version="1.2" xmlns="http://www.w3.org/2000/svg" viewBox="0 0 531 531" width="50" height="50">
	<title>facebook (2)-svg</title>
	<style>
		.s0 { fill: #1877f2 } 
		.s1 { fill: #ffffff } 
	</style>
	<path class="s0" d="m269 775c-283.1 0-512-228.9-512-512 0-283.1 228.9-512 512-512 283.1 0 512 228.9 512 512 0 283.1-228.9 512-512 512z"/>
	<path class="s1" d="m309 517.4v-178.8h59.7l11.4-74h-71v-48c0-20.2 9.9-40 41.7-40h32.2v-63c0 0-29.3-5-57.3-5-58.5 0-96.7 35.4-96.7 99.6v56.4h-65v74h65v178.9c-122.4-19.2-216-125.1-216-252.9 0-141.4 114.6-256 256-256 141.4 0 256 114.6 256 256 0 127.7-93.6 233.6-216 252.8z"/>
</svg>